<?xml version="1.0" standalone="no"?>
<!DOCTYPE svg PUBLIC "-//W3C//DTD SVG 20010904//EN"
 "http://www.w3.org/TR/2001/REC-SVG-20010904/DTD/svg10.dtd">
<svg version="1.0" xmlns="http://www.w3.org/2000/svg"
 width="300.000000pt" height="300.000000pt" viewBox="0 0 300.000000 300.000000"
 preserveAspectRatio="xMidYMid meet">
<metadata>
Created by potrace 1.10, written by Peter Selinger 2001-2011
</metadata>
<g transform="translate(0.000000,300.000000) scale(0.100000,-0.100000)"
fill="#000000" stroke="none">
<path d="M976 2363 c-14 -14 -28 -33 -31 -43 -5 -16 -9 -15 -37 10 -40 37 -72
42 -103 18 -32 -25 -33 -72 -1 -141 13 -29 27 -63 31 -77 4 -14 13 -32 20 -40
7 -8 21 -33 30 -55 10 -22 25 -48 33 -57 12 -14 11 -21 -3 -52 -10 -20 -21
-36 -26 -36 -4 0 -36 -26 -70 -57 -34 -32 -68 -62 -76 -67 -42 -23 -93 -93
-93 -125 0 -14 9 -37 20 -51 15 -20 28 -25 63 -25 29 0 52 6 64 18 19 17 21
16 59 -14 32 -25 45 -30 76 -26 38 5 44 9 103 64 57 53 67 56 99 22 33 -34 37
-35 66 -11 24 19 31 69 16 105 -17 38 11 14 42 -37 45 -73 82 -107 115 -104
15 1 29 8 32 16 3 7 10 10 16 6 7 -4 9 -3 5 4 -3 6 -2 13 4 17 19 11 3 92 -29
148 -30 52 -50 124 -31 112 4 -3 10 1 13 9 5 13 59 59 165 144 68 55 81 124
33 173 -43 43 -93 37 -149 -18 -19 -18 -35 -16 -55 7 -18 21 -77 28 -77 9 0
-6 -5 -9 -12 -7 -6 2 -21 -6 -34 -19 -13 -13 -28 -23 -34 -23 -5 0 -26 35 -46
78 -20 42 -42 80 -48 84 -6 4 -7 8 -1 8 5 0 -7 12 -27 26 -51 36 -91 38 -122
7z m98 -35 c23 -21 106 -191 106 -216 0 -28 24 -18 73 33 31 33 62 55 74 55
25 0 53 -25 53 -47 0 -16 -61 -80 -120 -124 -21 -15 -30 -28 -23 -32 11 -7 88
50 197 147 89 79 136 79 136 1 -1 -36 -10 -48 -75 -100 -27 -22 -55 -44 -61
-50 -26 -23 -105 -88 -120 -99 -14 -10 -9 -23 35 -109 53 -100 62 -145 36
-167 -22 -18 -42 3 -100 100 -25 44 -51 82 -55 85 -12 7 -55 -21 -96 -60 -47
-46 -156 -139 -187 -160 -27 -18 -29 -18 -55 2 -46 34 -41 63 25 126 32 30 72
66 88 79 17 13 41 35 53 50 13 16 29 28 36 28 7 0 24 13 39 28 l27 29 -42 79
c-90 170 -138 276 -138 306 0 17 28 36 57 37 7 1 23 -9 37 -21z m-190 -3 c8
-8 29 -45 46 -82 98 -209 112 -233 141 -233 21 0 29 -7 38 -30 5 -16 7 -30 3
-30 -4 0 -1 -4 7 -9 12 -8 12 -12 2 -25 -8 -9 -21 -16 -29 -16 -9 0 -41 -26
-72 -57 -30 -32 -79 -78 -109 -103 -29 -25 -63 -60 -76 -78 -27 -40 -82 -82
-107 -82 -26 0 -58 36 -58 64 0 18 17 40 61 78 34 29 76 67 94 83 19 17 56 48
84 70 60 47 64 67 23 128 -51 76 -132 265 -132 306 0 32 57 42 84 16z m296
-597 c21 -23 28 -92 10 -103 -16 -10 -47 13 -60 46 -12 28 -11 33 3 44 9 7 17
17 17 24 0 16 7 14 30 -11z"/>
<path d="M1210 2072 c0 -19 18 -42 32 -42 9 0 6 29 -5 48 -12 18 -27 15 -27
-6z"/>
<path d="M1885 2327 c-19 -10 -50 -68 -47 -87 2 -8 -6 -2 -16 14 -33 48 -68
65 -107 53 -57 -17 -56 -72 0 -187 51 -102 85 -180 85 -195 0 -8 -13 -29 -30
-47 -16 -17 -30 -34 -30 -37 0 -6 -37 -49 -89 -106 -15 -16 -36 -43 -47 -60
-10 -16 -21 -32 -24 -35 -17 -17 -40 -73 -40 -99 0 -24 7 -36 31 -50 33 -20
68 -15 113 15 16 11 22 9 45 -12 33 -31 54 -37 96 -30 35 7 93 57 121 105 18
31 54 48 54 27 0 -7 11 -27 25 -46 14 -19 25 -31 25 -27 0 4 8 3 18 -2 13 -7
24 -5 39 7 25 20 40 67 24 77 -6 3 -9 11 -6 16 4 5 2 9 -4 9 -6 0 -13 16 -17
35 -3 19 -10 32 -15 29 -5 -3 -9 2 -9 10 0 22 19 20 27 -1 4 -10 19 -39 35
-65 15 -27 25 -48 22 -48 -2 0 7 -12 21 -27 14 -15 25 -31 25 -34 0 -4 15 -14
34 -23 26 -12 41 -14 61 -6 14 5 23 14 20 20 -3 5 -2 10 4 10 21 0 22 46 1 93
-12 26 -43 83 -70 127 -27 44 -47 80 -44 80 2 0 0 9 -6 21 -9 16 -8 25 3 42
20 30 57 71 57 64 0 -5 39 36 107 111 24 27 37 83 27 115 -8 26 -27 43 -72 63
-29 13 -36 13 -71 -6 -22 -11 -42 -24 -46 -30 -8 -13 -45 -13 -45 1 0 5 -4 7
-10 4 -5 -3 -10 -1 -10 6 0 8 -15 10 -53 5 l-54 -6 -22 43 c-33 64 -89 91
-136 64z m73 -36 c15 -9 62 -106 62 -126 0 -8 6 -18 14 -22 7 -4 16 -19 19
-33 13 -56 33 -100 44 -100 7 0 34 28 61 62 73 96 123 148 142 148 31 0 70
-39 70 -69 0 -33 -24 -64 -139 -179 -68 -68 -81 -86 -76 -105 9 -27 66 -133
113 -206 19 -29 37 -71 39 -92 5 -38 5 -39 -24 -39 -36 0 -44 9 -86 89 -78
147 -97 180 -106 185 -10 7 -71 -52 -71 -68 0 -6 12 -22 26 -37 30 -31 77
-140 65 -152 -5 -5 -19 -7 -32 -5 -39 5 -106 148 -69 148 6 0 10 5 10 11 0 8
-4 9 -13 0 -8 -6 -17 -8 -20 -5 -4 4 -11 -4 -16 -17 -5 -13 -28 -48 -50 -78
-23 -30 -41 -57 -41 -61 0 -13 -60 -40 -89 -40 -28 0 -51 21 -51 48 0 17 159
227 221 291 51 52 71 85 63 105 -8 21 -23 20 -32 -1 -14 -34 -54 -93 -62 -93
-5 0 -12 -9 -15 -20 -3 -11 -12 -20 -20 -20 -16 0 -66 -56 -102 -113 -58 -94
-126 -176 -154 -187 -39 -17 -79 0 -79 32 0 27 61 121 125 192 44 49 115 136
129 158 22 33 20 39 -55 195 -32 67 -61 133 -65 147 -12 48 37 74 78 42 10 -7
39 -64 64 -127 60 -144 63 -148 103 -120 33 24 38 36 20 47 -18 11 -79 146
-79 174 0 43 41 65 78 41z m194 -98 c10 -9 18 -25 18 -36 0 -36 -55 -107 -83
-107 -3 0 -5 12 -4 28 0 51 -3 62 -19 62 -11 0 -14 6 -8 23 3 12 11 28 16 35
15 17 58 15 80 -5z"/>
<path d="M1960 2010 c0 -25 16 -50 32 -50 15 0 8 27 -12 51 l-19 24 -1 -25z"/>
<path d="M700 1302 c-23 -8 -48 -35 -60 -66 l-11 -29 -25 34 c-26 36 -74 67
-74 49 0 -5 -6 -10 -14 -10 -29 0 -46 -30 -46 -82 0 -58 28 -208 41 -223 5 -5
9 -17 9 -27 0 -25 41 -142 52 -146 4 -2 6 -7 3 -12 -3 -4 2 -13 10 -20 8 -7
15 -17 15 -22 0 -12 16 -32 80 -97 75 -76 103 -98 120 -93 8 3 12 1 8 -3 -12
-12 110 -66 168 -74 29 -4 59 -13 67 -19 7 -6 30 -14 50 -16 20 -3 44 -9 54
-14 10 -5 63 -12 118 -15 55 -4 169 -11 254 -18 161 -12 252 -4 295 27 11 8
38 14 59 14 49 0 71 12 130 68 26 26 47 43 47 39 0 -8 0 -9 75 55 55 47 211
202 235 233 37 49 120 178 120 186 0 6 4 8 9 5 4 -3 13 22 19 57 9 58 8 65
-14 104 -14 24 -33 47 -44 53 -28 15 -67 12 -82 -5 -7 -9 -18 -21 -24 -28 -5
-7 -13 -20 -17 -29 -9 -25 -21 -22 -37 7 -7 13 -23 28 -34 31 -12 4 -24 11
-27 17 -13 19 -57 -28 -95 -98 -21 -38 -43 -76 -51 -83 -7 -7 -13 -19 -13 -25
-1 -17 -47 -67 -61 -67 -7 0 -10 -3 -6 -6 7 -7 -49 -64 -64 -64 -6 0 -7 -4 -4
-10 3 -5 2 -10 -2 -10 -5 0 -27 -17 -50 -37 -165 -152 -154 -145 -296 -199
-99 -38 -153 -44 -282 -30 -83 9 -184 34 -205 51 -8 7 -24 15 -35 19 -11 3
-45 29 -75 58 -30 28 -48 47 -40 43 8 -5 5 3 -7 16 -34 38 -64 137 -94 304
-21 118 -32 154 -58 184 -17 20 -65 32 -91 23z m-116 -75 c8 -18 18 -61 22
-97 3 -36 17 -102 30 -148 13 -45 24 -88 24 -95 0 -28 73 -154 108 -185 52
-48 114 -89 172 -116 27 -13 47 -26 43 -29 -9 -10 101 -56 175 -73 84 -19 110
-33 64 -34 -46 0 -164 31 -181 48 -8 8 -23 11 -38 7 -36 -9 -89 10 -173 59
-172 101 -238 198 -301 444 -48 191 -50 240 -9 254 27 9 48 -3 64 -35z m185
24 c13 -13 22 -46 30 -107 15 -112 64 -292 94 -346 12 -22 26 -48 31 -57 10
-18 111 -104 129 -110 7 -2 32 -13 57 -23 71 -32 183 -47 355 -48 195 0 252
12 395 82 122 61 110 52 213 148 132 124 221 232 267 324 51 104 60 113 94 91
39 -26 50 -73 30 -126 -14 -36 -95 -170 -114 -189 -3 -3 -17 -21 -31 -40 -71
-94 -215 -224 -318 -285 -53 -32 -61 -39 -46 -48 25 -14 3 -25 -65 -33 -30 -4
-67 -13 -82 -20 -61 -31 -124 -36 -306 -25 -157 10 -317 38 -284 49 28 9 8 19
-43 20 -30 1 -68 8 -84 17 -17 8 -37 15 -45 15 -8 0 -21 8 -28 18 -7 10 -36
32 -64 50 -58 37 -130 121 -174 205 -34 64 -99 307 -102 379 -1 26 3 53 11 62
18 22 57 20 80 -3z m1486 -63 c24 -19 27 -26 23 -68 -6 -56 -65 -150 -156
-248 -32 -34 -56 -64 -54 -66 2 -2 -6 -7 -17 -11 -11 -3 -23 -15 -26 -26 -4
-10 -11 -17 -16 -13 -5 3 -7 10 -3 15 5 9 -98 -62 -133 -91 -7 -6 -15 -10 -18
-9 -3 0 -26 -9 -50 -21 -25 -12 -51 -23 -57 -24 -7 -2 -26 -8 -43 -15 -42 -17
-135 -41 -160 -41 -20 1 -20 1 -1 15 11 8 25 15 32 15 33 0 191 87 234 129 26
25 91 87 145 136 96 88 196 221 210 278 7 26 40 67 54 67 5 0 21 -10 36 -22z"/>
</g>
</svg>
